<svg width="187" height="166" viewBox="0 0 187 166" fill="none" xmlns="http://www.w3.org/2000/svg">
<path d="M150.223 0.523315H36.5565C35.2649 0.523315 34.0378 1.16915 33.3274 2.26707L1.03571 49.8004C0.099247 51.2212 0.196122 53.0942 1.26175 54.3858L90.3867 164.436C91.9367 166.341 94.843 166.341 96.393 164.436L185.518 54.3858C186.584 53.0619 186.68 51.2212 185.744 49.8004L153.485 2.26707C152.742 1.16915 151.547 0.523315 150.223 0.523315ZM143.991 16.0233L164.432 47.0233H142.344L125.649 16.0233H143.991ZM78.7295 16.0233H108.018L124.713 47.0233H62.067L78.7295 16.0233ZM42.7888 16.0233H61.1305L44.4357 47.0233H22.3482L42.7888 16.0233ZM28.9034 62.5233H45.5013L67.5565 114.19L28.9034 62.5233ZM62.1315 62.5233H124.648L93.3899 141.089L62.1315 62.5233ZM119.223 114.19L141.246 62.5233H157.844L119.223 114.19Z" fill="#3AB2E4"/>
</svg>
