<svg width="44" height="51" viewBox="0 0 44 51" fill="none" xmlns="http://www.w3.org/2000/svg">
<path d="M43.875 23.9875V33.3625C43.875 33.6637 43.8402 33.964 43.7712 34.2573L40.6462 47.5385C40.2311 49.303 38.6564 50.55 36.8438 50.55H16.5313C15.9151 50.55 15.3077 50.4043 14.7587 50.1247C14.2096 49.8451 13.7345 49.4396 13.3721 48.9414L0.872367 31.7539C-0.396481 30.0091 -0.0107388 27.5661 1.73389 26.2972C3.47871 25.0283 5.92178 25.4141 7.19063 27.1588L10.2813 31.4086V4.4563C10.2813 2.29897 12.0301 0.550049 14.1875 0.550049C16.3449 0.550049 18.0938 2.29897 18.0938 4.4563V23.9875H18.875V20.0813C18.875 17.924 20.6238 16.175 22.7813 16.175C24.9387 16.175 26.6875 17.924 26.6875 20.0813V23.9875H27.4688V21.6438C27.4688 19.4865 29.2176 17.7375 31.375 17.7375C33.5324 17.7375 35.2813 19.4865 35.2813 21.6438V23.9875H36.0625C36.0625 21.8302 37.8113 20.0813 39.9688 20.0813C42.1262 20.0813 43.875 21.8302 43.875 23.9875ZM18.875 31.8H18.0938V41.175H18.875V31.8ZM27.4688 31.8H26.6875V41.175H27.4688V31.8ZM36.0625 31.8H35.2813V41.175H36.0625V31.8Z" fill="#4E0559"/>
</svg>
