<svg width="50" height="41" viewBox="0 0 50 41" fill="none" xmlns="http://www.w3.org/2000/svg">
<path d="M19.9242 20.9915C20.4125 21.4797 21.2039 21.4797 21.6922 20.9915L22.5758 20.1079C23.0641 19.6196 23.0641 18.8282 22.5758 18.3399L19.7852 15.55L22.575 12.7594C23.0633 12.2711 23.0633 11.4797 22.575 10.9915L21.6914 10.1079C21.2031 9.61958 20.4117 9.61958 19.9234 10.1079L15.3656 14.6657C14.8773 15.154 14.8773 15.9454 15.3656 16.4336L19.9242 20.9915ZM27.425 20.1086L28.3086 20.9922C28.7969 21.4805 29.5883 21.4805 30.0766 20.9922L34.6344 16.4344C35.1227 15.9461 35.1227 15.1547 34.6344 14.6665L30.0766 10.1086C29.5883 9.62036 28.7969 9.62036 28.3086 10.1086L27.425 10.9922C26.9367 11.4805 26.9367 12.2719 27.425 12.7602L30.2148 15.55L27.425 18.3407C26.9367 18.829 26.9367 19.6204 27.425 20.1086ZM48.75 33.05H29.8078C29.75 34.5977 28.6586 35.55 27.25 35.55H22.5C21.0398 35.55 19.9203 34.1852 19.9398 33.05H1.25C0.5625 33.05 0 33.6125 0 34.3V35.55C0 38.3 2.25 40.55 5 40.55H45C47.75 40.55 50 38.3 50 35.55V34.3C50 33.6125 49.4375 33.05 48.75 33.05ZM45 4.30005C45 2.23755 43.3125 0.550049 41.25 0.550049H8.75C6.6875 0.550049 5 2.23755 5 4.30005V30.55H45V4.30005ZM40 25.55H10V5.55005H40V25.55Z" fill="#4E0559"/>
</svg>
