<svg width="32" height="51" viewBox="0 0 32 51" fill="none" xmlns="http://www.w3.org/2000/svg">
<path d="M26.9375 0.550049H5.0625C2.47461 0.550049 0.375 2.64966 0.375 5.23755V45.8625C0.375 48.4504 2.47461 50.55 5.0625 50.55H26.9375C29.5254 50.55 31.625 48.4504 31.625 45.8625V5.23755C31.625 2.64966 29.5254 0.550049 26.9375 0.550049ZM16 47.425C14.2715 47.425 12.875 46.0286 12.875 44.3C12.875 42.5715 14.2715 41.175 16 41.175C17.7285 41.175 19.125 42.5715 19.125 44.3C19.125 46.0286 17.7285 47.425 16 47.425ZM26.9375 36.8782C26.9375 37.5227 26.4102 38.05 25.7656 38.05H6.23438C5.58984 38.05 5.0625 37.5227 5.0625 36.8782V6.40942C5.0625 5.76489 5.58984 5.23755 6.23438 5.23755H25.7656C26.4102 5.23755 26.9375 5.76489 26.9375 6.40942V36.8782Z" fill="#4E0559"/>
</svg>
