<svg width="21" height="20" viewBox="0 0 21 20" fill="none" xmlns="http://www.w3.org/2000/svg">
<path d="M0.817383 10.3201C0.817383 15.6716 5.15332 20.0076 10.5049 20.0076C15.8564 20.0076 20.1924 15.6716 20.1924 10.3201C20.1924 4.96851 15.8564 0.632568 10.5049 0.632568C5.15332 0.632568 0.817383 4.96851 0.817383 10.3201ZM18.3174 10.3201C18.3174 14.6365 14.8213 18.1326 10.5049 18.1326C6.18848 18.1326 2.69238 14.6365 2.69238 10.3201C2.69238 6.00366 6.18848 2.50757 10.5049 2.50757C14.8213 2.50757 18.3174 6.00366 18.3174 10.3201ZM15.5049 9.53882V11.1013C15.5049 11.3591 15.2939 11.5701 15.0361 11.5701H10.5049V14.1873C10.5049 14.6052 10.001 14.8123 9.7041 14.5193L5.83691 10.6521C5.65332 10.4685 5.65332 10.1716 5.83691 9.98804L9.7041 6.12085C10.001 5.82397 10.5049 6.03491 10.5049 6.45288V9.07007H15.0361C15.2939 9.07007 15.5049 9.28101 15.5049 9.53882Z" fill="white"/>
</svg>
