<svg width="51" height="51" viewBox="0 0 51 51" fill="none" xmlns="http://www.w3.org/2000/svg">
<path d="M50.1465 43.5325L40.4102 33.7961C39.9707 33.3567 39.375 33.1125 38.75 33.1125H37.1582C39.8535 29.6653 41.4551 25.3293 41.4551 20.6125C41.4551 9.39185 32.3633 0.300049 21.1426 0.300049C9.92188 0.300049 0.830078 9.39185 0.830078 20.6125C0.830078 31.8333 9.92188 40.925 21.1426 40.925C25.8594 40.925 30.1953 39.3235 33.6426 36.6282V38.22C33.6426 38.845 33.8867 39.4407 34.3262 39.8801L44.0625 49.6165C44.9805 50.5344 46.4648 50.5344 47.373 49.6165L50.1367 46.8528C51.0547 45.9348 51.0547 44.4504 50.1465 43.5325ZM21.1426 33.1125C14.2383 33.1125 8.64258 27.5266 8.64258 20.6125C8.64258 13.7083 14.2285 8.11255 21.1426 8.11255C28.0469 8.11255 33.6426 13.6985 33.6426 20.6125C33.6426 27.5168 28.0566 33.1125 21.1426 33.1125Z" fill="#4E0559"/>
</svg>
