<svg width="45" height="51" viewBox="0 0 45 51" fill="none" xmlns="http://www.w3.org/2000/svg">
<path d="M34.6699 31.55C32.4621 31.55 30.4329 32.3136 28.8311 33.5906L18.8227 27.3353C19.119 25.9946 19.119 24.6054 18.8227 23.2647L28.8311 17.0094C30.4329 18.2865 32.4621 19.05 34.6699 19.05C39.8476 19.05 44.0449 14.8527 44.0449 9.67505C44.0449 4.49741 39.8476 0.300049 34.6699 0.300049C29.4923 0.300049 25.2949 4.49741 25.2949 9.67505C25.2949 10.3741 25.3721 11.0549 25.5172 11.7103L15.5088 17.9656C13.9069 16.6886 11.8777 15.925 9.66992 15.925C4.49229 15.925 0.294922 20.1224 0.294922 25.3C0.294922 30.4777 4.49229 34.675 9.66992 34.675C11.8777 34.675 13.9069 33.9115 15.5088 32.6345L25.5172 38.8898C25.3693 39.5581 25.2947 40.2406 25.2949 40.925C25.2949 46.1027 29.4923 50.3 34.6699 50.3C39.8476 50.3 44.0449 46.1027 44.0449 40.925C44.0449 35.7474 39.8476 31.55 34.6699 31.55Z" fill="#4E0559"/>
</svg>
